<?xml version="1.0" encoding="UTF-8"?>
<!-- Do not edit this file with editors other than draw.io -->
<!DOCTYPE svg PUBLIC "-//W3C//DTD SVG 1.1//EN" "http://www.w3.org/Graphics/SVG/1.1/DTD/svg11.dtd">
<svg xmlns="http://www.w3.org/2000/svg" xmlns:xlink="http://www.w3.org/1999/xlink" version="1.1" width="24px" height="24px" viewBox="-0.5 -0.5 104 104" content="&lt;mxfile host=&quot;app.diagrams.net&quot; modified=&quot;2024-07-04T16:05:04.054Z&quot; agent=&quot;Mozilla/5.0 (Windows NT 10.0; Win64; x64) AppleWebKit/537.36 (KHTML, like Gecko) Chrome/126.0.0.0 Safari/537.36&quot; version=&quot;24.6.4&quot; etag=&quot;_m_q0EQslC_lK26Up8QL&quot; type=&quot;onedrive&quot; scale=&quot;1&quot; border=&quot;0&quot;&gt;&#10;  &lt;diagram name=&quot;Page-1&quot; id=&quot;pMjFG-0BdsqQD0I_O0Pt&quot;&gt;&#10;    &lt;mxGraphModel dx=&quot;323&quot; dy=&quot;579&quot; grid=&quot;1&quot; gridSize=&quot;10&quot; guides=&quot;1&quot; tooltips=&quot;1&quot; connect=&quot;1&quot; arrows=&quot;1&quot; fold=&quot;1&quot; page=&quot;1&quot; pageScale=&quot;1&quot; pageWidth=&quot;850&quot; pageHeight=&quot;1100&quot; math=&quot;0&quot; shadow=&quot;0&quot;&gt;&#10;      &lt;root&gt;&#10;        &lt;mxCell id=&quot;0&quot; /&gt;&#10;        &lt;mxCell id=&quot;1&quot; parent=&quot;0&quot; /&gt;&#10;        &lt;mxCell id=&quot;2&quot; value=&quot;&quot; style=&quot;dashed=0;outlineConnect=0;html=1;align=center;labelPosition=center;verticalLabelPosition=bottom;verticalAlign=top;shape=mxgraph.webicons.linkedin;fillColor=#0095DB;gradientColor=#006391&quot; vertex=&quot;1&quot; parent=&quot;1&quot;&gt;&#10;          &lt;mxGeometry x=&quot;890&quot; y=&quot;330&quot; width=&quot;102.4&quot; height=&quot;102.4&quot; as=&quot;geometry&quot; /&gt;&#10;        &lt;/mxCell&gt;&#10;      &lt;/root&gt;&#10;    &lt;/mxGraphModel&gt;&#10;  &lt;/diagram&gt;&#10;&lt;/mxfile&gt;&#10;" style="background-color: rgb(255, 255, 255);"><defs><linearGradient x1="0%" y1="0%" x2="0%" y2="100%" id="mx-gradient-0095db-1-006391-1-s-0"><stop offset="0%" style="stop-color: rgb(0, 149, 219); stop-opacity: 1;"/><stop offset="100%" style="stop-color: rgb(0, 99, 145); stop-opacity: 1;"/></linearGradient></defs><rect fill="#ffffff" width="100%" height="100%" x="0" y="0"/><g><g data-cell-id="0"><g data-cell-id="1"><g data-cell-id="J-HWDnc3eoODgd_bvKci-7"><g><path d="M 11 102.4 C 8.08 102.4 5.28 101.23 3.22 99.16 C 1.16 97.08 0 94.27 0 91.33 L 0 11.07 C 0 8.13 1.16 5.32 3.22 3.24 C 5.28 1.17 8.08 0 11 0 L 91.4 0 C 94.32 0 97.12 1.17 99.18 3.24 C 101.24 5.32 102.4 8.13 102.4 11.07 L 102.4 91.33 C 102.4 94.27 101.24 97.08 99.18 99.16 C 97.12 101.23 94.32 102.4 91.4 102.4 Z" fill="url(#mx-gradient-0095db-1-006391-1-s-0)" stroke="none" pointer-events="all"/><path d="M 41.67 35.18 L 54.44 35.22 L 54.5 41.48 C 55.1 37.12 58.87 35.13 65.36 35.18 C 73.19 35.18 76.18 38.34 77.83 42.16 C 79.16 45.34 79.97 49.57 80.02 53.61 L 80.05 80.21 L 67.24 80.21 L 67.22 53.97 C 67.22 51.52 65.64 48.05 61.02 48.05 C 57.21 48.05 54.46 49.83 54.46 54.65 L 54.48 80.2 L 41.67 80.25 Z M 28.87 32.04 C 25.78 32.04 22.55 29.69 22.55 25.57 C 22.55 22.14 25.08 19.14 28.87 19.14 C 33.24 19.14 35.35 22.8 35.35 25.57 C 35.35 29.42 32.13 32.04 28.87 32.04 Z M 22.53 80.25 L 22.56 35.19 L 35.33 35.22 L 35.36 80.22 Z" fill="#ffffff" stroke="none" pointer-events="all"/><path d="M 0 11.07 C 0 8.13 1.16 5.32 3.22 3.24 C 5.28 1.17 8.08 0 11 0 L 91.4 0 C 94.32 0 97.12 1.17 99.18 3.24 C 101.24 5.32 102.4 8.13 102.4 11.07 L 102.4 38.05 C 70.08 53.92 32.32 53.92 0 38.05 Z" fill-opacity="0.2" fill="#ffffff" stroke="none" pointer-events="all"/></g></g><g data-cell-id="J-HWDnc3eoODgd_bvKci-8"/></g></g></g></svg>